<?xml version="1.0" encoding="utf-8"?>
<!-- Generator: Adobe Illustrator 24.0.1, SVG Export Plug-In . SVG Version: 6.00 Build 0)  -->
<svg version="1.1" xmlns="http://www.w3.org/2000/svg" xmlns:xlink="http://www.w3.org/1999/xlink" x="0px" y="0px"
	 viewBox="0 0 1000 1000" style="enable-background:new 0 0 1000 1000;" xml:space="preserve">
<style type="text/css">
	.st0{display:none;}
	.st1{display:inline;fill:#2342B5;}
	.st2{opacity:0.18;}
	.st3{fill:#231F20;}
	.st4{fill:#FFFFFF;}
</style>
<g id="Layer_1" class="st0">
	<rect class="st1" width="1000" height="1000"/>
</g>
<g id="Layer_2">
	<g class="st2">
		<path class="st3" d="M241.62,731.44c-31.25-30.84-11.77-120.92,7.3-182.2c5.28-17.86,56.81-161.91,57.22-163.53
			c7.71-19.48-64.11-20.29-64.52-19.07c-9.33,43.01-44.64,158.26-51.13,180.98c-3.25,10.96-6.09,21.51-8.52,31.65l-42.61-1.22
			c38.55-136.35,60.46-187.88,62.49-193.56c5.27-17.04-64.12-22.32-64.52-20.7c-8.52,38.14-21.1,85.62-56,212.23
			c-9.33,0-15.42-0.41-16.23-0.41c-12.58,0.81-19.88,22.32-14.61,32.46h0.41c7.3,0.41,14.2,0.81,21.51,0.81l-4.87,17.04
			c-18.26,66.14,14.2,75.88,42.61,71.01c0,0-1.22-4.87,13.8-62.09l7.71-29.21c19.07-2.44,34.9-6.09,47.07-11.36
			c-19.88,89.68-13.39,144.46,24.75,168.81c75.48,47.88,237.79-86.03,372.51,64.93c19.07,20.7,55.19-54.78,52.35-57.22
			C494.43,648.25,302.49,791.9,241.62,731.44z"/>
		<path class="st3" d="M742.68,499.73c-4.06,0-7.3,0.41-9.74,0.81l-6.09-7.71c-17.45-19.48-95.36,15.02-120.92,97.79
			c-1.74,5.63-2.94,11.25-3.68,16.79c-0.38,0.72-0.78,1.48-1.19,2.28c-13.8,25.97-23.13,39.77-30.84,45.85
			c-8.93,6.09-12.17,4.87-9.74-9.74c4.46-26.78,24.75-91.71,43.82-149.74c18.67-57.62,39.77-108.75,40.17-110.37
			c7.71-19.48-64.11-20.29-64.52-19.07c-9.33,43.01-16.23,63.71-31.65,113.21c-12.01,39.13-25.48,89-33.76,121.62
			c-0.36-5.54-2.66-3.38-9.69,9.56c-13.39,25.97-23.54,42.2-31.25,48.29c-7.71,6.09-11.77,6.49-9.33-9.33
			c4.46-27.19,45.16-192.75,64.23-251.18l10.96-34.09h11.36c83.19-0.81,165.56-58.03,182.2-120.92
			c13.39-51.53-41.39-95.77-85.22-85.62c-48.69,11.36-102.26,46.67-157.85,182.6c-62.9-17.04-124.17-49.91-167.18-31.65
			c-25.97,10.96,17.45,70.61,20.69,68.98c43.42-20.7,75.48-17.04,137.56-14.61c-7.3,19.48-35.01,141.62-42.32,164.35
			c-10,30.85-16.42,56.52-20.13,77.76c-1.17,1.89-2.56,4.4-4.22,7.63c-22.2,42.45-72.43,66.59-88.79,63.47
			c-13.24-1.95-12.46-23.37-5.45-54.13c47.51-33.1,104.36-82.55,108.65-106.7c3.12-17.13-39.72-38.94-45.17-44.39
			c-17.13-17.13-91.9,45.17-115.65,123.05c-15.97,51.79,7.01,102.41,41.67,102.41c31.36,0,82.53-33.74,106.17-72.03
			c-5.19,46.61,5.13,66.25,16.85,70.51c9.74,4.06,22.32,0.4,37.33-16.23c13.39-14.2,26.38-37.74,38.55-59.65
			c1.18-2.07,2.15-3.97,2.93-5.69c-0.3,1.22-0.59,2.42-0.87,3.55c-9.74,39.77-2.43,72.63,14.2,79.53
			c8.93,3.65,25.97-4.87,41.39-21.51c11.86-12.97,23.71-32.03,35.26-51.62c1.28,40.39,26.9,73.12,54.82,73.12
			c35.3,0,96.17-31.24,118.49-102.66C791.79,541.53,774.74,499.73,742.68,499.73z M327.92,594.53
			c12.85-45.56,36.6-117.6,52.57-109.42c11.68,6.23-14.8,81.39-56.46,123.05C325.19,603.88,326.36,599.2,327.92,594.53z
			 M639.3,173.59c30.03-6.09,43.42,26.38,34.9,73.04c-8.93,52.35-57.21,103.07-120.11,103.88h-9.74
			C586.95,222.69,606.02,180.08,639.3,173.59z M712.66,594.28c-13.8,47.48-28,91.71-49.51,91.71c-16.64,0-8.52-47.88,5.28-95.36
			c15.42-54.38,34.09-95.36,54.78-84.81c1.62,1.22,3.25,2.43,4.87,4.46C733.76,522.46,724.02,553.7,712.66,594.28z"/>
		<path class="st3" d="M836.96,629.42c-21.79-0.27-31.59,15.24-31.66,25.21c0.46,11.25,11.38,24.47,33.79,24.79
			c21.87-0.97,31.68-16.48,31.75-26.45C870.38,641.72,859.46,628.49,836.96,629.42z"/>
		<path class="st3" d="M878.55,229.17c-23.12,170.99-29.6,264-42.33,330.41c-5.97,31.98,21.3,25.16,23.14,16.57
			c16.81-89.18,50.67-172.81,109.53-346.91C971.31,221.3,879.82,219.91,878.55,229.17z"/>
	</g>
	<g>
		<path class="st4" d="M605.31,479.34c18.67-57.62,39.77-108.75,40.17-110.37c7.71-19.48-64.11-20.29-64.52-19.07
			c-9.33,43.01-16.23,63.71-31.65,113.21c-14.2,46.26-30.43,107.53-37.74,137.56c-9.74,39.77-2.43,72.63,14.2,79.53
			c8.93,3.65,25.97-4.87,41.39-21.51c12.99-14.2,25.97-35.71,38.55-57.22c4.87-8.52,6.09-14.2,6.09-16.64c0-7.3-2.43-6.09-9.74,8.12
			c-13.8,25.97-23.13,39.77-30.84,45.85c-8.93,6.09-12.17,4.87-9.74-9.74C565.95,602.3,586.24,537.37,605.31,479.34z M545.84,536.52
			c-5.44,18.72-10.97,37.37-15.88,56.33c0.62-9.79,2.08-19.51,3.67-29.18c0.84-4.83,1.76-9.64,2.7-14.45
			c0.94-4.81,2.03-9.58,3.08-14.36c4.25-19.12,9.29-38.02,14.65-56.81c5.39-18.78,11.12-37.45,17.17-56.01
			c5.99-18.58,12.25-37.06,18.77-55.53c-3.11,19.36-7.61,38.43-12.4,57.37c-4.76,18.96-10,37.76-15.35,56.52
			C556.88,499.14,551.37,517.84,545.84,536.52z"/>
		<path class="st4" d="M429.77,499.13c3.12-17.13-39.72-38.94-45.17-44.39c-17.13-17.13-91.9,45.17-115.65,123.05
			c-15.97,51.79,7.01,102.41,41.67,102.41c32.32,0,85.67-35.82,108.26-75.54c4.67-8.18,5.84-13.63,5.84-15.96
			c0-7.01-2.34-5.84-9.35,7.79c-22.2,42.45-72.43,66.59-88.79,63.47c-13.24-1.95-12.46-23.37-5.45-54.13
			C368.64,572.73,425.49,523.28,429.77,499.13z M395.49,522.29c5.2-5.97,10.34-11.99,14.26-18.5c1.93-3.25,3.54-6.65,4.07-10.2
			c0.27-1.78,0.2-3.59-0.28-5.41c-0.48-1.82-1.44-3.59-2.67-5.27c1.85,0.96,3.53,2.4,4.79,4.26c1.29,1.85,2.04,4.11,2.32,6.4
			c0.54,4.63-0.65,9.11-2.23,13.15c-1.63,4.06-3.78,7.77-6.15,11.28c-2.37,3.5-4.99,6.78-7.72,9.92
			c-5.49,6.25-11.52,11.89-17.86,17.12c-6.37,5.19-13.01,10-20.22,14.15c4.83-6.78,10.21-12.92,15.58-18.98
			C384.79,534.15,390.25,528.26,395.49,522.29z M328.92,577.79c12.85-45.56,36.6-117.6,52.57-109.42
			c11.68,6.23-14.8,81.39-56.46,123.05C326.19,587.14,327.36,582.46,328.92,577.79z M304.02,536.29
			c-5.62,11.42-10.41,23.2-14.4,35.23c-3.96,12.03-7.18,24.32-9.06,36.82c-0.94,6.24-1.53,12.54-1.49,18.86
			c0.06,6.31,0.69,12.66,2.96,18.79c-1.98-2.61-3.45-5.63-4.6-8.75c-1.16-3.13-1.95-6.38-2.53-9.66c-1.13-6.58-1.33-13.27-1.01-19.9
			c0.71-13.27,3.51-26.31,7.64-38.84c4.16-12.53,9.72-24.58,16.65-35.79c6.96-11.16,15.3-21.6,25.47-29.85
			C316.1,513.83,309.64,524.85,304.02,536.29z"/>
		<path class="st4" d="M743.68,482.99c-4.06,0-7.3,0.41-9.74,0.81l-6.09-7.71c-17.45-19.48-95.36,15.02-120.92,97.79
			c-16.64,53.97,15.01,106.32,50.32,106.32c35.3,0,96.17-31.24,118.49-102.66C792.79,524.79,775.74,482.99,743.68,482.99z
			 M629.1,572.42c-3.96,12.04-7.18,24.32-9.06,36.82c-0.94,6.24-1.52,12.54-1.49,18.86c0.06,6.31,0.69,12.66,2.96,18.79
			c-1.98-2.61-3.45-5.63-4.6-8.75c-1.16-3.13-1.95-6.38-2.53-9.66c-1.13-6.58-1.33-13.27-1.01-19.9c0.71-13.27,3.5-26.31,7.64-38.84
			c4.16-12.53,9.72-24.58,16.65-35.79c6.96-11.16,15.3-21.6,25.47-29.85c-7.56,10.63-14.02,21.66-19.64,33.09
			C637.89,548.62,633.09,560.39,629.1,572.42z M713.66,577.54c-13.8,47.48-28,91.71-49.51,91.71c-16.64,0-8.52-47.88,5.28-95.36
			c15.42-54.38,34.09-95.36,54.78-84.81c1.62,1.22,3.25,2.43,4.87,4.46C734.76,505.72,725.02,536.96,713.66,577.54z M773.34,547.6
			c-0.77,9.04-2.71,17.96-5.72,26.46c-3.04,8.48-7.13,16.65-12.77,23.65c2.48-8.61,4.65-16.98,6.32-25.44
			c1.7-8.44,2.94-16.91,3.69-25.39c0.71-8.48,0.93-16.98,0.15-25.38c-0.39-4.2-1.04-8.37-2.14-12.46c-1.09-4.1-2.66-8.08-5.06-11.88
			c1.86,1.25,3.55,2.84,5.02,4.59c1.5,1.75,2.77,3.69,3.89,5.71c2.23,4.06,3.78,8.46,4.87,12.92
			C773.72,529.33,774.08,538.56,773.34,547.6z"/>
		<path class="st4" d="M648.82,141.43c-48.69,11.36-102.26,46.67-157.85,182.6c-62.9-17.04-124.17-49.91-167.18-31.65
			c-25.97,10.96,17.45,70.61,20.69,68.98c43.42-20.7,75.48-17.04,137.56-14.61c-7.3,19.48-35.01,141.62-42.32,164.35
			c-38.55,118.9-23.94,161.1-6.09,167.59c9.74,4.06,22.32,0.4,37.33-16.23c13.39-14.2,26.38-37.74,38.55-59.65
			c4.87-8.52,6.09-14.2,6.09-16.23c0-7.71-2.03-6.49-9.74,7.71c-13.39,25.97-23.54,42.2-31.25,48.29
			c-7.71,6.09-11.77,6.49-9.33-9.33c4.46-27.19,45.16-192.75,64.23-251.18l10.96-34.09h11.36c83.19-0.81,165.56-58.03,182.2-120.92
			C747.42,175.51,692.64,131.28,648.82,141.43z M399.6,310.02c-8.53-2.55-16.99-5.03-25.46-6.89c-8.47-1.83-16.96-3.03-25.43-2.54
			c-4.24,0.22-8.45,0.9-12.63,2.05c-4.19,1.15-8.29,2.83-12.41,4.84c3-3.47,6.7-6.38,10.82-8.68c4.13-2.28,8.68-3.89,13.35-4.82
			c9.4-1.87,19.05-1.12,28.11,0.84c9.1,1.98,17.75,5.16,26.02,8.94c8.27,3.83,16.21,8.22,23.71,13.46
			C416.74,315.22,408.14,312.55,399.6,310.02z M536.94,252.21c-3.46,7.54-6.65,15.21-9.63,22.96c-3.02,7.73-5.9,15.53-8.65,23.37
			c-2.75,7.84-5.5,15.68-8.12,23.57c-5.2,15.79-10.37,31.59-15.21,47.5c-4.92,15.88-9.76,31.8-14.36,47.78
			c-4.74,15.94-9.27,31.95-13.7,47.98c-4.54,16-8.75,32.1-13.03,48.17c-2.12,8.04-4.12,16.11-6.15,24.18
			c-2.03,8.07-3.97,16.15-5.8,24.26c-1.89,8.1-3.61,16.23-5.15,24.4c-0.77,4.08-1.47,8.18-2.02,12.3
			c-0.56,4.11-1.03,8.25-0.93,12.42c-0.6-4.14-0.49-8.36-0.36-12.54c0.19-4.18,0.55-8.36,0.97-12.52c0.85-8.33,2.09-16.6,3.38-24.86
			c2.73-16.5,5.97-32.89,9.59-49.19c1.78-8.16,3.65-16.3,5.64-24.41c1.97-8.11,3.99-16.21,6.06-24.3
			c4.21-16.16,8.7-32.24,13.32-48.28c4.77-16,9.65-31.97,14.86-47.84c5.3-15.84,10.67-31.66,16.64-47.27
			c5.87-15.65,12.19-31.14,19.18-46.35c3.56-7.57,7.23-15.1,11.36-22.4c2.07-3.64,4.23-7.24,6.57-10.72
			c2.38-3.44,4.88-6.85,7.91-9.74c-2.66,3.22-4.82,6.78-6.81,10.41C540.5,244.72,538.67,248.45,536.94,252.21z M675.19,229.89
			c-8.93,52.35-57.21,103.07-120.11,103.88h-9.74c42.61-127.82,61.68-170.43,94.96-176.92
			C670.32,150.76,683.72,183.22,675.19,229.89z M719.09,230.12c-3.09,9.76-7.35,19.14-12.81,27.8c-2.74,4.32-5.8,8.45-9.23,12.25
			c-1.73,1.89-3.53,3.71-5.47,5.38c-1.93,1.67-3.94,3.24-6.11,4.57c6.11-8.04,10.78-16.6,14.94-25.42
			c4.13-8.82,7.62-17.9,10.56-27.14c2.9-9.24,5.29-18.65,6.52-28.17c0.6-4.76,0.91-9.55,0.53-14.29c-0.41-4.71-1.44-9.49-4.61-13.48
			c2.21,1.27,4.04,3.25,5.46,5.47c1.44,2.22,2.45,4.69,3.23,7.21c1.52,5.06,2.02,10.31,2.04,15.49
			C724.13,210.17,722.15,220.36,719.09,230.12z"/>
		<path class="st4" d="M629.34,754.06c-133.91-122.55-325.85,21.1-386.72-39.36c-31.25-30.84-11.77-120.92,7.3-182.2
			c5.28-17.86,56.81-161.91,57.22-163.53c7.71-19.48-64.11-20.29-64.52-19.07c-9.33,43.01-44.64,158.26-51.13,180.98
			c-3.25,10.96-6.09,21.51-8.52,31.65l-42.61-1.22c38.55-136.35,60.46-187.88,62.49-193.56c5.27-17.04-64.12-22.32-64.52-20.7
			c-8.52,38.14-21.1,85.62-56,212.23c-9.33,0-15.42-0.41-16.23-0.41c-12.58,0.81-19.88,22.32-14.61,32.46h0.41
			c7.3,0.41,14.2,0.81,21.51,0.81l-4.87,17.04c-18.26,66.14,14.2,75.88,42.61,71.01c0,0-1.22-4.87,13.8-62.09l7.71-29.21
			c19.07-2.44,34.9-6.09,47.07-11.36c-19.88,89.68-13.39,144.46,24.75,168.81c75.48,47.88,237.79-86.03,372.51,64.93
			C596.06,831.97,632.18,756.5,629.34,754.06z M118.65,487.28c-5.36,18.75-10.87,37.45-16.4,56.13
			c-5.44,18.71-10.97,37.37-15.88,56.33c0.62-9.79,2.08-19.51,3.67-29.18c0.84-4.83,1.76-9.64,2.7-14.45
			c0.94-4.81,2.03-9.58,3.08-14.36c4.25-19.11,9.29-38.02,14.65-56.81c5.39-18.78,11.12-37.45,17.17-56.01
			c5.99-18.58,12.25-37.06,18.77-55.53c-3.11,19.36-7.61,38.43-12.4,57.37C129.24,449.72,124,468.53,118.65,487.28z M236.54,729.09
			c-4.25-2.48-8.31-5.38-12.05-8.69c-3.75-3.31-7.08-7.11-10.01-11.22c-5.9-8.21-9.69-17.86-11.69-27.68
			c-2.01-9.85-2.32-19.88-1.67-29.71c0.69-9.85,2.32-19.53,4.52-29.01c2.21-9.49,4.95-18.8,8.08-27.94
			c6.14-18.34,13.68-35.98,20.96-53.79c-1.87,9.46-4.47,18.75-6.97,28.02c-2.59,9.24-5.17,18.47-7.65,27.68
			c-4.82,18.43-9.16,36.97-10.45,55.61c-0.33,4.65-0.44,9.3-0.26,13.92c0.14,4.62,0.6,9.21,1.37,13.72
			c1.53,9.03,4.58,17.71,9.3,25.52c4.77,7.76,11.23,14.56,18.8,20.07c7.53,5.61,16.09,9.93,24.95,13.69
			C254.34,737.31,245.1,733.97,236.54,729.09z M585.43,744.93c-10.28-6.41-20.87-11.99-32.01-16.15
			c-11.13-4.19-22.81-6.96-34.76-9.06c-11.95-2.13-24.14-3.6-36.4-5.6c12.33-1.53,24.75-1.9,37.22-1.03
			c12.44,0.9,25.01,3.24,36.92,7.71c11.93,4.43,22.97,10.97,32.85,18.62c9.89,7.69,18.82,16.34,26.87,25.8
			C605.72,758.43,595.73,751.3,585.43,744.93z"/>
		<g>
			<path class="st4" d="M837.96,612.68c-21.79-0.27-31.59,15.24-31.66,25.21c0.46,11.25,11.38,24.47,33.79,24.79
				c21.87-0.97,31.68-16.48,31.75-26.45C871.38,624.98,860.46,611.75,837.96,612.68z M863.97,640.83c-0.88,2.21-2.12,4.24-3.75,6.07
				c-0.42,0.45-0.86,0.89-1.33,1.31c-0.21,0.19-0.53,0.46-0.75,0.64c-0.18,0.14-0.43,0.34-0.65,0.5c-0.93,0.66-1.9,1.32-2.95,1.85
				c-2.09,1.1-4.46,1.84-6.79,2.04c-2.33,0.21-4.55-0.04-6.6-0.52c-2.06-0.5-4-1.16-5.98-2.08c3.96-1.78,8.04-2.48,11.06-3.9
				c1.53-0.69,2.85-1.48,4.14-2.44c0.64-0.49,1.29-0.98,1.91-1.54l0.5-0.43l0.36-0.34c0.26-0.25,0.51-0.52,0.75-0.8
				c2.01-2.27,3.8-5.18,4.7-8.07c0.45-1.45,0.68-2.88,0.44-4.42c-0.22-1.55-1.13-3.19-2.59-4.83c2.16-0.08,4.53,0.84,6.24,2.79
				c1.71,1.93,2.49,4.6,2.58,7.07C865.36,636.23,864.83,638.63,863.97,640.83z"/>
			<path class="st4" d="M879.55,212.43c-23.12,170.99-29.6,264-42.33,330.41c-5.97,31.98,21.3,25.16,23.14,16.57
				c16.81-89.18,50.67-172.81,109.53-346.91C972.31,204.56,880.82,203.18,879.55,212.43z M946.71,249.02
				c-1.3,4.67-2.74,9.29-4.08,13.94l-4.24,13.88c-2.88,9.23-5.95,18.39-9.22,27.5c-3.31,9.09-6.51,18.22-9.64,27.37
				c-6.21,18.32-12.23,36.71-17.96,55.19c-5.82,18.45-11.41,36.98-16.11,55.76l-0.83-0.17c1.67-9.56,3.73-19.04,5.93-28.49
				c2.2-9.45,4.52-18.87,6.92-28.26c4.92-18.76,10.14-37.44,15.55-56.07l8.12-27.95c2.76-9.3,5.81-18.51,9.17-27.62
				c1.72-4.54,3.42-9.08,5.2-13.6c1.83-4.5,3.59-9.02,5.54-13.47c3.8-8.94,7.82-17.8,12.34-26.45l0.8,0.3
				C951.96,230.36,949.38,239.71,946.71,249.02z"/>
		</g>
	</g>
</g>
</svg>
