<?xml version="1.0" encoding="UTF-8" standalone="no"?>
<!-- Created with Inkscape (http://www.inkscape.org/) -->
<svg
   xmlns:dc="http://purl.org/dc/elements/1.1/"
   xmlns:cc="http://creativecommons.org/ns#"
   xmlns:rdf="http://www.w3.org/1999/02/22-rdf-syntax-ns#"
   xmlns:svg="http://www.w3.org/2000/svg"
   xmlns="http://www.w3.org/2000/svg"
   xmlns:xlink="http://www.w3.org/1999/xlink"
   xmlns:sodipodi="http://sodipodi.sourceforge.net/DTD/sodipodi-0.dtd"
   xmlns:inkscape="http://www.inkscape.org/namespaces/inkscape"
   width="571.9848"
   height="539.25232"
   id="svg4569"
   sodipodi:version="0.32"
   inkscape:version="0.45+devel"
   version="1.0"
   sodipodi:docname="plane-tree-leaf.svg"
   inkscape:output_extension="org.inkscape.output.svg.inkscape">
  <defs
     id="defs4571">
    <linearGradient
       inkscape:collect="always"
       id="linearGradient2473">
      <stop
         style="stop-color:#ff6600;stop-opacity:1"
         offset="0"
         id="stop2475" />
      <stop
         style="stop-color:#89a02c;stop-opacity:1"
         offset="1"
         id="stop2477" />
    </linearGradient>
    <linearGradient
       inkscape:collect="always"
       xlink:href="#linearGradient2473"
       id="linearGradient3225"
       gradientUnits="userSpaceOnUse"
       gradientTransform="matrix(0.8783187,0,0,0.9680958,-102.24937,7.2056336)"
       x1="334.12506"
       y1="214.20903"
       x2="629.3031"
       y2="542.18451" />
    <inkscape:perspective
       sodipodi:type="inkscape:persp3d"
       inkscape:vp_x="-50 : 600 : 1"
       inkscape:vp_y="0 : 1000 : 0"
       inkscape:vp_z="700 : 600 : 1"
       inkscape:persp3d-origin="300 : 400 : 1"
       id="perspective4577" />
  </defs>
  <sodipodi:namedview
     id="base"
     pagecolor="#ffffff"
     bordercolor="#666666"
     borderopacity="1.0"
     gridtolerance="10000"
     guidetolerance="10"
     objecttolerance="10"
     inkscape:pageopacity="0.0"
     inkscape:pageshadow="2"
     inkscape:zoom="0.35"
     inkscape:cx="375"
     inkscape:cy="520"
     inkscape:document-units="px"
     inkscape:current-layer="layer1"
     showgrid="false" />
  <metadata
     id="metadata4574">
    <rdf:RDF>
      <cc:Work
         rdf:about="">
        <dc:format>image/svg+xml</dc:format>
        <dc:type
           rdf:resource="http://purl.org/dc/dcmitype/StillImage" />
      </cc:Work>
    </rdf:RDF>
  </metadata>
  <g
     inkscape:label="Layer 1"
     inkscape:groupmode="layer"
     id="layer1"
     transform="translate(-75.436164,-77.697895)">
    <path
       style="opacity:0.78971965;fill:url(#linearGradient3225);fill-opacity:1"
       d="M 228.79884,616.86426 C 226.06829,616.37518 226.25806,614.31656 230.00362,603.7968 C 234.05294,592.42394 234.89822,583.91783 232.26722,581.01787 C 229.65817,578.1422 223.77801,577.52423 212.36448,578.9264 C 203.1943,580.05301 202.13992,580.01515 200.0192,578.48354 C 198.38893,577.30618 197.88475,576.3272 198.32136,575.18679 C 200.12177,570.48392 199.86356,569.23324 196.80097,567.82285 C 195.15138,567.06313 189.47289,565.73627 184.18219,564.87425 C 178.89146,564.01227 169.29938,562.23868 162.86644,560.93309 C 156.43354,559.62743 149.5168,558.55252 147.49588,558.54439 C 143.11288,558.52671 142.28339,558.00881 140.54203,554.20276 C 137.49848,547.55045 137.53508,547.42645 144.09558,542.167 C 147.43644,539.48873 151.90347,534.78589 154.02224,531.71626 C 156.14104,528.64663 159.45558,523.91841 161.3879,521.20909 C 164.55967,516.76181 167.95082,511.05414 171.40454,504.34982 C 173.3471,500.579 174.1094,495.5875 173.54899,490.30849 C 173.06719,485.77052 172.71235,485.19901 167.87105,481.16412 C 165.0308,478.797 160.45439,475.5297 157.7012,473.90342 C 153.32844,471.32044 152.27489,470.08959 149.36996,464.16989 C 146.93125,459.20013 146.04091,456.22455 146.03094,453.01019 C 146.01174,446.83198 144.23193,444.66496 135.58204,440.28822 C 128.37272,436.64042 123.181,432.5048 123.181,430.40981 C 123.181,429.87819 123.93568,428.54386 124.858,427.44463 C 126.52514,425.4578 128.6583,414.09886 127.81771,411.68443 C 127.58961,411.02927 126.0966,410.22309 124.49984,409.89293 C 120.25801,409.01585 117.74683,405.54133 111.40367,391.77308 C 108.28035,384.99387 104.97308,378.25239 104.05412,376.79207 C 103.13509,375.33179 100.32804,370.08446 97.816116,365.13132 C 92.057696,353.77648 88.142426,347.65454 81.752426,340.01393 C 72.933716,329.46927 73.192196,327.99729 83.520106,329.94634 C 86.735166,330.55305 97.099446,331.52054 106.55173,332.09635 C 121.54345,333.00952 124.85166,332.93612 132.46212,331.52147 C 141.57626,329.82731 149.23529,327.28653 152.64001,324.82763 C 153.74205,324.03177 155.12201,321.73145 155.70655,319.71588 C 156.29104,317.70031 157.0618,315.69804 157.41925,315.26632 C 158.89478,313.48437 165.25601,314.63174 172.36686,317.96247 C 181.97955,322.46493 194.98765,326.21623 200.98813,326.21623 C 205.05344,326.21623 205.90151,325.88146 207.14796,323.78471 C 209.52873,319.77982 206.30202,308.5613 200.12236,299.35835 C 193.96479,290.18832 189.78752,281.09881 190.09868,277.54741 C 190.40862,274.01009 191.24652,273.86505 199.20121,275.97193 C 202.8253,276.93179 204.35038,276.89757 207.52403,275.78512 C 211.00974,274.5633 211.57421,273.93266 213.00853,269.65798 C 214.58906,264.94768 214.58503,264.83068 212.66026,259.49298 C 211.58935,256.52307 210.06712,253.00404 209.27756,251.67289 C 207.05712,247.9294 202.22974,235.74117 202.22974,233.8785 C 202.22974,231.28544 207.91391,229.039 211.24073,230.31721 C 216.01047,232.14996 222.06101,231.60082 224.70362,229.09538 C 229.18003,224.8514 229.01118,209.90888 224.37189,199.74036 C 219.39884,188.84027 219.88362,185.28015 226.28168,185.71381 C 232.19418,186.11456 233.68039,185.28816 234.72311,181.02005 C 237.02496,171.59776 239.34523,154.16639 239.94447,141.79401 C 240.30548,134.3397 241.06079,127.0061 241.62292,125.49717 C 242.18505,123.98825 242.37373,122.26991 242.0422,121.67869 C 241.71067,121.08747 241.11902,117.31212 240.72746,113.28911 C 239.95409,105.34412 238.78537,93.974299 237.76357,84.456009 C 237.19949,79.201489 237.31453,78.343259 238.65914,77.774529 C 239.83036,77.279149 241.86564,79.113389 247.10851,85.389279 C 254.5871,94.341299 272.58913,109.27002 283.47421,115.54662 C 289.89553,119.24928 294.5069,122.87373 301.97126,130.08488 C 304.41546,132.4461 308.96078,136.01216 312.07194,138.00939 C 315.18314,140.00662 321.80307,144.7247 326.783,148.49403 C 341.10858,159.33723 344.0957,160.88588 349.75409,160.40345 C 354.17451,160.02664 354.83417,159.6406 358.14562,155.4927 C 360.12236,153.01671 362.15107,150.9909 362.65387,150.9909 C 364.32692,150.9909 366.36064,154.35202 368.97967,161.44551 C 370.40538,165.30697 373.15275,171.39579 375.08491,174.97613 C 378.0962,180.55608 379.32291,181.88923 383.67294,184.30953 C 386.46415,185.86253 389.87485,187.13315 391.25231,187.13315 C 394.62875,187.13315 398.87782,182.44803 402.59013,174.63185 C 404.21516,171.21028 405.94359,168.55073 406.43103,168.72166 C 407.71721,169.17285 411.87657,177.79408 413.52331,183.42213 C 417.72345,197.77719 423.16544,210.26469 428.71137,218.27354 C 435.08687,227.48048 437.40663,229.40666 442.1192,229.40666 C 446.74101,229.40666 453.60629,223.42753 470.79123,204.4356 L 485.07938,188.64498 L 488.12934,192.2094 C 490.93443,195.48765 491.46136,195.72412 494.69215,195.15472 C 500.68981,194.09764 507.42151,190.82388 511.36837,187.04474 C 514.85572,183.7056 518.58849,181.00304 534.23435,170.48954 C 537.37429,168.37957 542.46958,164.12597 545.55708,161.03718 L 551.17078,155.42118 L 553.68153,158.73603 C 555.06247,160.5592 556.19232,162.61923 556.19232,163.31389 C 556.19232,164.0085 557.93044,166.42098 560.05491,168.67497 L 563.91754,172.77309 L 563.05224,178.58165 C 562.57633,181.77637 562.39907,187.05193 562.65838,190.30512 C 562.91764,193.55831 562.55021,202.2712 561.84191,209.66705 C 560.13906,227.44783 560.04431,246.79694 561.64248,250.40367 C 562.67488,252.73348 563.30188,253.08628 566.00064,252.8558 C 571.25986,252.40672 571.10653,255.82419 565.0549,273.93908 C 563.10976,279.76175 562.65079,289.3541 564.16785,292.47848 C 565.85103,295.94498 570.46514,297.31783 577.97955,296.58782 C 581.69652,296.22677 585.68038,295.54573 586.8326,295.07444 C 590.91738,293.40358 588.49004,300.38793 580.40634,313.56512 C 571.85597,327.50321 570.24541,331.24743 570.24541,337.18773 C 570.24541,344.82231 573.53661,347.41983 585.17683,348.97225 C 587.83371,349.32657 595.54095,351.05476 602.30409,352.81263 C 609.06711,354.57054 617.96008,356.27737 622.06622,356.60562 C 626.17239,356.93382 633.23007,357.71783 637.74997,358.34777 C 645.06382,359.36718 646.07326,359.74783 646.92481,361.80774 C 647.53969,363.29524 647.5847,364.63704 647.0508,365.5626 C 646.5939,366.35474 642.06993,369.41921 636.99764,372.37251 C 626.92606,378.23679 618.57848,384.38067 612.34513,390.51727 C 610.13846,392.68961 604.46434,398.14802 599.73586,402.64716 C 595.00741,407.14622 590.83886,411.72044 590.47249,412.81216 C 589.45006,415.85829 591.20985,418.89238 594.95763,420.54521 C 596.82429,421.36848 598.35163,422.44953 598.35163,422.94752 C 598.35163,423.44548 596.97879,425.10019 595.30093,426.62461 C 593.14838,428.5803 589.85159,430.02326 584.10235,431.52605 C 579.62101,432.69739 573.50646,434.98227 570.51441,436.60347 C 562.64942,440.86505 562.17039,444.81516 569.21774,447.29564 C 573.48788,448.79863 574.10343,449.54982 572.97284,451.87823 C 570.39678,457.18363 555.58232,462.27219 545.77454,461.22043 C 540.47982,460.65255 538.94418,460.96015 529.08115,464.56352 C 514.48157,469.89746 510.17803,471.03775 497.59801,472.90551 C 487.66533,474.38022 486.14951,474.38116 477.10196,472.91872 C 468.86263,471.5869 465.94515,471.51714 458.4815,472.47356 C 453.38308,473.12684 446.50685,473.32819 442.26134,472.94848 C 436.80168,472.46022 433.20664,472.70255 428.39146,473.88332 C 422.57879,475.30868 421.57666,475.90307 418.91294,479.50448 C 413.62036,486.66047 413.44744,487.44686 415.9824,492.8323 C 417.21161,495.44371 420.53155,501.17183 423.36007,505.56155 C 433.32035,521.01916 439.6393,534.61919 444.90176,551.92523 C 448.385,563.37998 450.40167,567.10865 454.12083,568.97061 C 455.91416,569.86841 457.53118,570.70838 457.71419,570.83715 C 458.0138,571.04796 458.12584,575.58746 457.90627,578.62236 C 457.79134,580.21142 452.97999,582.88242 451.42062,582.22288 C 450.73793,581.93413 448.51409,578.48988 446.47881,574.56906 C 443.81204,569.43181 442.55127,565.67351 441.96564,561.11579 C 440.34663,548.51469 433.7317,532.95803 421.18397,512.24241 C 409.94946,493.69468 409.35261,492.966 404.77526,492.20941 C 401.86244,491.72799 399.69671,492.13785 395.37088,493.98917 C 392.27986,495.31212 387.83648,497.08188 385.49674,497.922 C 382.75957,498.90482 378.64284,501.88232 373.95181,506.27196 C 362.78472,516.7218 355.14869,527.24109 346.18611,544.5218 C 340.43136,555.61737 332.39119,568.47218 329.38334,571.38649 C 328.19926,572.53362 326.16644,573.08066 323.087,573.08066 C 320.36281,573.08066 317.23464,573.81375 315.28587,574.90884 C 310.48218,577.60823 299.49692,587.05394 291.23522,595.58887 C 285.60713,601.40309 283.39604,603.09159 281.4105,603.09159 C 279.52863,603.09159 278.71741,602.53982 278.35526,601.01345 C 277.88937,599.04966 277.47881,598.96418 270.89935,599.46124 C 262.99924,600.05805 259.16739,601.67354 247.46315,609.34156 C 239.36596,614.64649 232.30516,617.49236 228.79884,616.86426 z"
       id="path2481" />
  </g>
</svg>
