<?xml version="1.0" encoding="UTF-8" standalone="no"?>
<!-- Created with Inkscape (http://www.inkscape.org/) -->

<svg
   xmlns:dc="http://purl.org/dc/elements/1.1/"
   xmlns:cc="http://creativecommons.org/ns#"
   xmlns:rdf="http://www.w3.org/1999/02/22-rdf-syntax-ns#"
   xmlns:svg="http://www.w3.org/2000/svg"
   xmlns="http://www.w3.org/2000/svg"
   xmlns:xlink="http://www.w3.org/1999/xlink"
   xmlns:sodipodi="http://sodipodi.sourceforge.net/DTD/sodipodi-0.dtd"
   xmlns:inkscape="http://www.inkscape.org/namespaces/inkscape"
   width="26.885948mm"
   height="32.154182mm"
   viewBox="0 0 26.885948 32.154182"
   version="1.1"
   id="svg2974"
   inkscape:version="0.92.3 (2405546, 2018-03-11)"
   sodipodi:docname="leaf-3.svg">
  <defs
     id="defs2968">
    <clipPath
       clipPathUnits="userSpaceOnUse"
       id="clipPath734">
      <path
         d="m 1437.44,7045.02 c 0,0 30.47,-10.47 43.03,-11.96 12.59,-1.49 32.28,-2.38 32.28,-2.38 0,0 -21.54,43.46 -32.28,75.3 -10.71,31.81 -26.27,102.79 -26.27,102.79 0,0 10.43,-8.53 28.69,-15.55 18.25,-7.01 26.25,-7.17 26.25,-7.17 0,0 -16.41,47.52 -23.89,76.49 -7.46,28.98 -17.92,77.69 -17.92,77.69 0,0 10.01,-10.59 27.47,-15.52 17.52,-4.94 27.53,0 27.53,0 0,0 -13.94,44.07 -15.57,72.9 -0.47,8.03 -0.64,16.67 -0.68,24.99 1.74,-10.31 7.71,-40.14 15.76,-62.68 8.87,-24.92 19.77,-42.19 19.77,-42.19 0,0 -12.55,-20.51 -45.05,-14.33 2.82,-12.38 5.9,-25.39 8.55,-35.75 7.15,-27.84 23.25,-74.43 23.44,-74.89 l 9.59,-27.76 -29.39,0.55 c -2.33,0.05 -10.22,0.65 -24.78,5.51 4.98,-20.6 11.05,-44.02 15.93,-58.52 10.16,-30.12 31.02,-72.36 31.23,-72.79 l 15.42,-31.13 -34.72,1.58 c -0.86,0.03 -20.62,0.95 -33.79,2.51 -3.34,0.39 -7.45,1.22 -11.83,2.29 4.47,-15.48 10,-32.1 15.65,-42.9 13.4,-25.35 41.4,-58.01 41.67,-58.34 l 6.37,-7.4 -1.74,-9.61 c -1.91,-10.42 -11.5,-23.15 -32.25,-25.98 4.91,-12.18 11.45,-26.14 19.36,-37.62 18.09,-26.2 50.46,-48.2 50.78,-48.43 l 14.17,-9.57 -6.83,-15.66 c -1.17,-2.59 -6.92,-14.46 -20.24,-21.56 11.71,-9.73 23.73,-19.1 32.45,-24.45 23.11,-14.13 51.96,-24.32 52.24,-24.42 l 19.49,-6.81 -6.96,-19.42 c -0.98,-2.82 -4.91,-11.43 -15.68,-19.92 14.1,-7.93 42.6,-20.74 63.86,-24.62 49.56,-9.08 88.26,4.34 88.26,4.34 0,0 -0.84,-41.79 -6.62,-49.93 19.46,0.56 56.35,-3.86 92.29,-2.52 35.93,1.34 48.57,5.34 101.52,13.09 -118.74,-38.7 -243.7,-30.69 -243.7,-30.69 0,0 15.52,8.06 29.88,27.49 14.35,19.42 10.73,20.32 10.73,20.32 0,0 -30.5,-7.77 -86.04,2.38 -55.55,10.16 -93.25,45.41 -93.25,45.41 0,0 13.44,0.33 25.11,7.19 11.68,6.87 14.35,14.33 14.35,14.33 0,0 -30.79,10.77 -56.18,26.31 -25.38,15.54 -70.51,57.37 -70.51,57.37 0,0 25.71,-2.4 35.85,1.19 10.17,3.59 14.37,13.14 14.37,13.14 0,0 -35.58,23.9 -56.23,53.79 -20.59,29.89 -32.26,72.91 -32.26,72.91 0,0 9.9,-4.93 25.09,-3.58 15.3,1.34 16.8,9.56 16.8,9.56 0,0 -29.61,34.36 -44.3,62.15 -14.57,27.79 -26.27,82.48 -26.27,82.48"
         id="path732"
         inkscape:connector-curvature="0" />
    </clipPath>
    <linearGradient
       x1="0"
       y1="0"
       x2="1"
       y2="0"
       gradientUnits="userSpaceOnUse"
       gradientTransform="matrix(4e-5,870.703,4019.38,-1.8e-4,-303.97,6551.71)"
       spreadMethod="pad"
       id="linearGradient750">
      <stop
         style="stop-opacity:1;stop-color:#9ed747"
         offset="0"
         id="stop736" />
      <stop
         style="stop-opacity:1;stop-color:#9ed747"
         offset="0.117978"
         id="stop738" />
      <stop
         style="stop-opacity:1;stop-color:#c9e776"
         offset="0.48386478"
         id="stop740" />
      <stop
         style="stop-opacity:1;stop-color:#c9e776"
         offset="0.488764"
         id="stop742" />
      <stop
         style="stop-opacity:1;stop-color:#7fcc2b"
         offset="0.81898109"
         id="stop744" />
      <stop
         style="stop-opacity:1;stop-color:#7fcc2b"
         offset="0.825843"
         id="stop746" />
      <stop
         style="stop-opacity:1;stop-color:#7fcc2b"
         offset="1"
         id="stop748" />
    </linearGradient>
    <clipPath
       clipPathUnits="userSpaceOnUse"
       id="clipPath708">
      <path
         d="m 2063.98,6624.54 c 0,0 44.15,41.5 71.45,101.51 22.44,49.32 28.15,112.16 35.09,165.65 4.91,37.89 7.12,74 8,103.5 -2.78,-2.58 -4.79,-4.16 -5.33,-4.62 l -28.83,-22.44 -4.16,36.29 c -0.05,0.61 -6.84,59.7 -11.74,84.43 -1.91,9.84 -7.85,28.06 -14.24,46.23 -1.64,-3.96 -2.59,-6.45 -2.61,-6.49 l -17.24,-45.56 -20.52,44.18 c -0.26,0.54 -24.83,53.27 -45.03,83.21 -7.19,10.68 -16.04,22.68 -24.51,33.86 -2.34,-13.79 -5.15,-27.95 -5.34,-28.75 l -10.1,-51.32 -27.43,44.55 c -0.37,0.56 -35.27,57 -64.26,82.64 -16.38,14.51 -41.28,34.53 -61.09,50.16 -3.63,-20.6 -14.64,-31.44 -16.95,-33.45 l -19.12,-16.81 -12.36,22.24 c -7.08,12.77 -28.79,49.01 -43.87,63.11 -8.28,7.72 -21.47,18.35 -34.02,28.1 -0.16,-5.39 -0.52,-9.97 -1.02,-13.59 -2.58,-18.15 -10.25,-35.8 -11.11,-37.73 l -11.92,-26.78 -21.08,20.35 c -0.4,0.38 -41.3,42.67 -66.62,62.57 -25.3,19.88 -91.26,53.77 -91.26,53.77 0,0 63.94,-20.62 96.82,-40.64 32.9,-20.01 75.32,-60.95 75.32,-60.95 0,0 7.31,16.44 9.53,32.26 2.27,15.84 0,52.6 0,52.6 0,0 48.56,-35.57 69.35,-54.97 20.76,-19.44 47.81,-68.13 47.81,-68.13 0,0 8.65,7.6 10.75,23.9 2.11,16.29 1.18,34.65 1.18,34.65 0,0 61.55,-47.3 93.23,-75.3 31.7,-28 68.12,-87.25 68.12,-87.25 0,0 4.93,24.95 7.17,40.64 2.26,15.69 3.6,35.86 3.6,35.86 0,0 34.82,-42.47 56.22,-74.12 21.34,-31.66 46.59,-86.06 46.59,-86.06 0,0 4.17,11.06 10.76,25.11 6.58,14.05 13.12,27.5 13.12,27.5 0,0 27.2,-69.79 32.28,-95.64 5.12,-25.84 11.97,-86.06 11.97,-86.06 0,0 14.79,11.5 23.87,28.7 9.15,17.18 14.34,32.28 14.34,32.28 0,0 17.65,-331.38 -115.91,-430.29 -6.15,-4.55 -12.47,-8.83 -18.9,-12.9"
         id="path706"
         inkscape:connector-curvature="0" />
    </clipPath>
    <linearGradient
       x1="0"
       y1="0"
       x2="1"
       y2="0"
       gradientUnits="userSpaceOnUse"
       gradientTransform="matrix(748.175,-627.793,-2811.1,-3350.13,2879.47,9099.27)"
       spreadMethod="pad"
       id="linearGradient724">
      <stop
         style="stop-opacity:1;stop-color:#9ed747"
         offset="0"
         id="stop710" />
      <stop
         style="stop-opacity:1;stop-color:#9ed747"
         offset="0.117978"
         id="stop712" />
      <stop
         style="stop-opacity:1;stop-color:#c9e776"
         offset="0.48386478"
         id="stop714" />
      <stop
         style="stop-opacity:1;stop-color:#c9e776"
         offset="0.488764"
         id="stop716" />
      <stop
         style="stop-opacity:1;stop-color:#7fcc2b"
         offset="0.81898109"
         id="stop718" />
      <stop
         style="stop-opacity:1;stop-color:#7fcc2b"
         offset="0.825843"
         id="stop720" />
      <stop
         style="stop-opacity:1;stop-color:#7fcc2b"
         offset="1"
         id="stop722" />
    </linearGradient>
    <radialGradient
       inkscape:collect="always"
       xlink:href="#linearGradient1302"
       id="radialGradient2893"
       cx="1818.5007"
       cy="7007.6216"
       fx="1818.5007"
       fy="7007.6216"
       r="381.06067"
       gradientTransform="matrix(1,0,0,1.1959475,0,-1373.1258)"
       gradientUnits="userSpaceOnUse" />
    <linearGradient
       x1="0"
       y1="0"
       x2="1"
       y2="0"
       gradientUnits="userSpaceOnUse"
       gradientTransform="matrix(-141.095,71.1364,373.865,736.73,334.048,-152.393)"
       spreadMethod="pad"
       id="linearGradient1302">
      <stop
         style="stop-opacity:1;stop-color:#c0e366"
         offset="0"
         id="stop1294" />
      <stop
         style="stop-opacity:1;stop-color:#c0e366"
         offset="0.00561798"
         id="stop1296" />
      <stop
         style="stop-opacity:1;stop-color:#83c827"
         offset="0.93293634"
         id="stop1298" />
      <stop
         style="stop-opacity:1;stop-color:#83c827"
         offset="1"
         id="stop1300" />
    </linearGradient>
    <radialGradient
       inkscape:collect="always"
       xlink:href="#linearGradient1302"
       id="radialGradient2929"
       cx="1818.5007"
       cy="7007.6216"
       fx="1818.5007"
       fy="7007.6216"
       r="381.06067"
       gradientTransform="matrix(1,0,0,1.1959475,0,-1373.1258)"
       gradientUnits="userSpaceOnUse" />
    <clipPath
       clipPathUnits="userSpaceOnUse"
       id="clipPath688">
      <path
         d="m 1437.44,7045.02 c 0,0 30.47,-10.47 43.03,-11.96 12.59,-1.49 32.28,-2.38 32.28,-2.38 0,0 -21.54,43.46 -32.28,75.3 -10.71,31.81 -26.27,102.79 -26.27,102.79 0,0 10.43,-8.53 28.69,-15.55 18.25,-7.01 26.25,-7.17 26.25,-7.17 0,0 -16.41,47.52 -23.89,76.49 -7.46,28.98 -17.92,77.69 -17.92,77.69 0,0 10.01,-10.59 27.47,-15.52 17.52,-4.94 27.53,0 27.53,0 0,0 -13.94,44.07 -15.57,72.9 -1.62,28.85 0,65.74 0,65.74 0,0 63.94,-20.62 96.82,-40.64 32.9,-20.01 75.32,-60.95 75.32,-60.95 0,0 7.31,16.44 9.53,32.26 2.27,15.84 0,52.6 0,52.6 0,0 48.56,-35.57 69.35,-54.97 20.76,-19.44 47.81,-68.13 47.81,-68.13 0,0 8.65,7.6 10.75,23.9 2.11,16.29 1.18,34.65 1.18,34.65 0,0 61.55,-47.3 93.23,-75.3 31.7,-28 68.12,-87.25 68.12,-87.25 0,0 4.93,24.95 7.17,40.64 2.26,15.69 3.6,35.86 3.6,35.86 0,0 34.82,-42.47 56.22,-74.12 21.34,-31.66 46.59,-86.06 46.59,-86.06 0,0 4.17,11.06 10.76,25.11 6.58,14.05 13.12,27.5 13.12,27.5 0,0 27.2,-69.79 32.28,-95.64 5.12,-25.84 11.97,-86.06 11.97,-86.06 0,0 14.79,11.5 23.87,28.7 9.15,17.18 14.34,32.28 14.34,32.28 0,0 17.65,-331.38 -115.91,-430.29 -15.06,-11.15 -31.2,-20.85 -48.01,-29.32 -3.3,16.76 -7.35,33.26 -12.04,49.53 39.56,56.43 58.03,93.41 68.03,127.3 10.84,36.88 27,104.62 20.46,133.65 -2.42,-30.13 -11.79,-93.17 -42.18,-149.58 -24.75,-45.97 -29.51,-58.38 -54.39,-85.25 -12.1,36.66 -27.08,72.17 -43.46,106.69 -3.05,6.39 -6.16,12.74 -9.33,19.06 24.93,41.77 47.82,88.24 52.22,130.93 5.04,49.18 7.29,108.28 -2.38,136.37 2.71,-30.16 -5.59,-112.52 -22.19,-161.68 -12.34,-36.41 -25.45,-54.21 -41.7,-78.3 -23.81,45 -50.13,88.49 -77.85,130.91 18.76,38.5 35.89,81.52 36.33,119.5 0.54,42.2 -2.13,92.63 -12.5,115.75 4.62,-25.42 3.89,-96.07 -6.45,-139.17 -8.32,-34.62 -19.15,-50.68 -32.53,-75.47 -68.16,89.84 -142.32,174.33 -221.55,253.16 61.23,-74.41 118.13,-152.38 169.81,-233.2 -20.86,-0.73 -36.17,-2.3 -61.79,4.64 -33.49,9.08 -81.2,36.84 -96.2,50.73 10.89,-17.51 43.57,-39.81 72.07,-56.35 26.28,-15.19 63.83,-18.71 98.64,-19.16 9.6,-15.35 19.04,-30.74 28.23,-46.29 16.22,-25 31.89,-50.36 46.76,-76.11 -33.01,-5.73 -53.87,-12.34 -94.18,-8.58 -48.14,4.48 -120.38,29.59 -144.36,43.95 19.3,-19.82 69.55,-41.17 112.73,-56.08 39.67,-13.7 91.85,-10.37 139.57,-3.67 13.44,-24.35 26.18,-49.08 37.92,-74.19 8.63,-18.5 16.76,-37.24 24.16,-56.19 -45.04,-7.79 -50.24,-10.07 -96.47,-4.91 -52.08,5.78 -127.63,24.2 -154.39,36.09 22.85,-20.07 88.58,-43.33 120.41,-53.47 29,-9.23 79.49,-16.1 140.3,-4.14 10.54,-30 19.05,-60.55 24.56,-91.56 -125.95,-49.74 -270.83,-40.45 -270.83,-40.45 0,0 15.52,8.06 29.88,27.49 14.35,19.42 10.73,20.32 10.73,20.32 0,0 -30.5,-7.77 -86.04,2.38 -55.55,10.16 -93.25,45.41 -93.25,45.41 0,0 13.44,0.33 25.11,7.19 11.68,6.87 14.35,14.33 14.35,14.33 0,0 -30.79,10.77 -56.18,26.31 -25.38,15.54 -70.51,57.37 -70.51,57.37 0,0 25.71,-2.4 35.85,1.19 10.17,3.59 14.37,13.14 14.37,13.14 0,0 -35.58,23.9 -56.23,53.79 -20.59,29.89 -32.26,72.91 -32.26,72.91 0,0 9.9,-4.93 25.09,-3.58 15.3,1.34 16.8,9.56 16.8,9.56 0,0 -29.61,34.36 -44.3,62.15 -14.57,27.79 -26.27,82.48 -26.27,82.48"
         id="path686"
         inkscape:connector-curvature="0" />
    </clipPath>
    <radialGradient
       inkscape:collect="always"
       xlink:href="#linearGradient1302"
       id="radialGradient2943"
       cx="1818.5007"
       cy="7007.6216"
       fx="1818.5007"
       fy="7007.6216"
       r="381.06067"
       gradientTransform="matrix(1,0,0,1.1959475,0,-1373.1258)"
       gradientUnits="userSpaceOnUse" />
    <radialGradient
       r="381.06067"
       fy="7007.6216"
       fx="1818.5007"
       cy="7007.6216"
       cx="1818.5007"
       gradientTransform="matrix(1,0,0,1.1959475,0,-1373.1258)"
       gradientUnits="userSpaceOnUse"
       id="radialGradient2964"
       xlink:href="#linearGradient1302"
       inkscape:collect="always" />
    <radialGradient
       r="381.06067"
       fy="7007.6216"
       fx="1818.5007"
       cy="7007.6216"
       cx="1818.5007"
       gradientTransform="matrix(1,0,0,1.1959475,0,-1373.1258)"
       gradientUnits="userSpaceOnUse"
       id="radialGradient2966"
       xlink:href="#linearGradient1302"
       inkscape:collect="always" />
  </defs>
  <sodipodi:namedview
     id="base"
     pagecolor="#ffffff"
     bordercolor="#666666"
     borderopacity="1.0"
     inkscape:pageopacity="0.0"
     inkscape:pageshadow="2"
     inkscape:zoom="1.979899"
     inkscape:cx="30.871973"
     inkscape:cy="62.117084"
     inkscape:document-units="mm"
     inkscape:current-layer="layer1"
     showgrid="false"
     inkscape:window-width="1360"
     inkscape:window-height="703"
     inkscape:window-x="0"
     inkscape:window-y="0"
     inkscape:window-maximized="1" />
  <metadata
     id="metadata2971">
    <rdf:RDF>
      <cc:Work
         rdf:about="">
        <dc:format>image/svg+xml</dc:format>
        <dc:type
           rdf:resource="http://purl.org/dc/dcmitype/StillImage" />
        <dc:title></dc:title>
      </cc:Work>
    </rdf:RDF>
  </metadata>
  <g
     inkscape:label="Layer 1"
     inkscape:groupmode="layer"
     id="layer1"
     transform="translate(-84.830835,-113.85743)">
    <g
       id="g3624">
      <g
         style="fill:url(#radialGradient2893);fill-opacity:1"
         id="g682"
         transform="matrix(0.03527778,0,0,-0.03527778,34.121143,377.14785)">
        <g
           style="fill:url(#radialGradient2966);fill-opacity:1"
           clip-path="url(#clipPath688)"
           id="g684">
          <path
             inkscape:connector-curvature="0"
             id="path700"
             style="fill:url(#radialGradient2964);fill-opacity:1;fill-rule:nonzero;stroke:none"
             d="m 1437.44,7045.02 c 0,0 30.47,-10.47 43.03,-11.96 12.59,-1.49 32.28,-2.38 32.28,-2.38 0,0 -21.54,43.46 -32.28,75.3 -10.71,31.81 -26.27,102.79 -26.27,102.79 0,0 10.43,-8.53 28.69,-15.55 18.25,-7.01 26.25,-7.17 26.25,-7.17 0,0 -16.41,47.52 -23.89,76.49 -7.46,28.98 -17.92,77.69 -17.92,77.69 0,0 10.01,-10.59 27.47,-15.52 17.52,-4.94 27.53,0 27.53,0 0,0 -13.94,44.07 -15.57,72.9 -1.62,28.85 0,65.74 0,65.74 0,0 63.94,-20.62 96.82,-40.64 32.9,-20.01 75.32,-60.95 75.32,-60.95 0,0 7.31,16.44 9.53,32.26 2.27,15.84 0,52.6 0,52.6 0,0 48.56,-35.57 69.35,-54.97 20.76,-19.44 47.81,-68.13 47.81,-68.13 0,0 8.65,7.6 10.75,23.9 2.11,16.29 1.18,34.65 1.18,34.65 0,0 61.55,-47.3 93.23,-75.3 31.7,-28 68.12,-87.25 68.12,-87.25 0,0 4.93,24.95 7.17,40.64 2.26,15.69 3.6,35.86 3.6,35.86 0,0 34.82,-42.47 56.22,-74.12 21.34,-31.66 46.59,-86.06 46.59,-86.06 0,0 4.17,11.06 10.76,25.11 6.58,14.05 13.12,27.5 13.12,27.5 0,0 27.2,-69.79 32.28,-95.64 5.12,-25.84 11.97,-86.06 11.97,-86.06 0,0 14.79,11.5 23.87,28.7 9.15,17.18 14.34,32.28 14.34,32.28 0,0 17.65,-331.38 -115.91,-430.29 -15.06,-11.15 -31.2,-20.85 -48.01,-29.32 -3.3,16.76 -7.35,33.26 -12.04,49.53 39.56,56.43 58.03,93.41 68.03,127.3 10.84,36.88 27,104.62 20.46,133.65 -2.42,-30.13 -11.79,-93.17 -42.18,-149.58 -24.75,-45.97 -29.51,-58.38 -54.39,-85.25 -12.1,36.66 -27.08,72.17 -43.46,106.69 -3.05,6.39 -6.16,12.74 -9.33,19.06 24.93,41.77 47.82,88.24 52.22,130.93 5.04,49.18 7.29,108.28 -2.38,136.37 2.71,-30.16 -5.59,-112.52 -22.19,-161.68 -12.34,-36.41 -25.45,-54.21 -41.7,-78.3 -23.81,45 -50.13,88.49 -77.85,130.91 18.76,38.5 35.89,81.52 36.33,119.5 0.54,42.2 -2.13,92.63 -12.5,115.75 4.62,-25.42 3.89,-96.07 -6.45,-139.17 -8.32,-34.62 -19.15,-50.68 -32.53,-75.47 -68.16,89.84 -142.32,174.33 -221.55,253.16 61.23,-74.41 118.13,-152.38 169.81,-233.2 -20.86,-0.73 -36.17,-2.3 -61.79,4.64 -33.49,9.08 -81.2,36.84 -96.2,50.73 10.89,-17.51 43.57,-39.81 72.07,-56.35 26.28,-15.19 63.83,-18.71 98.64,-19.16 9.6,-15.35 19.04,-30.74 28.23,-46.29 16.22,-25 31.89,-50.36 46.76,-76.11 -33.01,-5.73 -53.87,-12.34 -94.18,-8.58 -48.14,4.48 -120.38,29.59 -144.36,43.95 19.3,-19.82 69.55,-41.17 112.73,-56.08 39.67,-13.7 91.85,-10.37 139.57,-3.67 13.44,-24.35 26.18,-49.08 37.92,-74.19 8.63,-18.5 16.76,-37.24 24.16,-56.19 -45.04,-7.79 -50.24,-10.07 -96.47,-4.91 -52.08,5.78 -127.63,24.2 -154.39,36.09 22.85,-20.07 88.58,-43.33 120.41,-53.47 29,-9.23 79.49,-16.1 140.3,-4.14 10.54,-30 19.05,-60.55 24.56,-91.56 -125.95,-49.74 -270.83,-40.45 -270.83,-40.45 0,0 15.52,8.06 29.88,27.49 14.35,19.42 10.73,20.32 10.73,20.32 0,0 -30.5,-7.77 -86.04,2.38 -55.55,10.16 -93.25,45.41 -93.25,45.41 0,0 13.44,0.33 25.11,7.19 11.68,6.87 14.35,14.33 14.35,14.33 0,0 -30.79,10.77 -56.18,26.31 -25.38,15.54 -70.51,57.37 -70.51,57.37 0,0 25.71,-2.4 35.85,1.19 10.17,3.59 14.37,13.14 14.37,13.14 0,0 -35.58,23.9 -56.23,53.79 -20.59,29.89 -32.26,72.91 -32.26,72.91 0,0 9.9,-4.93 25.09,-3.58 15.3,1.34 16.8,9.56 16.8,9.56 0,0 -29.61,34.36 -44.3,62.15 -14.57,27.79 -26.27,82.48 -26.27,82.48" />
        </g>
      </g>
      <g
         id="g702"
         transform="matrix(0.03527778,0,0,-0.03527778,34.121143,377.14785)">
        <g
           clip-path="url(#clipPath708)"
           id="g704">
          <path
             inkscape:connector-curvature="0"
             id="path726"
             style="fill:url(#linearGradient724);fill-opacity:1;fill-rule:nonzero;stroke:none"
             d="m 2063.98,6624.54 c 0,0 44.15,41.5 71.45,101.51 22.44,49.32 28.15,112.16 35.09,165.65 4.91,37.89 7.12,74 8,103.5 -2.78,-2.58 -4.79,-4.16 -5.33,-4.62 l -28.83,-22.44 -4.16,36.29 c -0.05,0.61 -6.84,59.7 -11.74,84.43 -1.91,9.84 -7.85,28.06 -14.24,46.23 -1.64,-3.96 -2.59,-6.45 -2.61,-6.49 l -17.24,-45.56 -20.52,44.18 c -0.26,0.54 -24.83,53.27 -45.03,83.21 -7.19,10.68 -16.04,22.68 -24.51,33.86 -2.34,-13.79 -5.15,-27.95 -5.34,-28.75 l -10.1,-51.32 -27.43,44.55 c -0.37,0.56 -35.27,57 -64.26,82.64 -16.38,14.51 -41.28,34.53 -61.09,50.16 -3.63,-20.6 -14.64,-31.44 -16.95,-33.45 l -19.12,-16.81 -12.36,22.24 c -7.08,12.77 -28.79,49.01 -43.87,63.11 -8.28,7.72 -21.47,18.35 -34.02,28.1 -0.16,-5.39 -0.52,-9.97 -1.02,-13.59 -2.58,-18.15 -10.25,-35.8 -11.11,-37.73 l -11.92,-26.78 -21.08,20.35 c -0.4,0.38 -41.3,42.67 -66.62,62.57 -25.3,19.88 -91.26,53.77 -91.26,53.77 0,0 63.94,-20.62 96.82,-40.64 32.9,-20.01 75.32,-60.95 75.32,-60.95 0,0 7.31,16.44 9.53,32.26 2.27,15.84 0,52.6 0,52.6 0,0 48.56,-35.57 69.35,-54.97 20.76,-19.44 47.81,-68.13 47.81,-68.13 0,0 8.65,7.6 10.75,23.9 2.11,16.29 1.18,34.65 1.18,34.65 0,0 61.55,-47.3 93.23,-75.3 31.7,-28 68.12,-87.25 68.12,-87.25 0,0 4.93,24.95 7.17,40.64 2.26,15.69 3.6,35.86 3.6,35.86 0,0 34.82,-42.47 56.22,-74.12 21.34,-31.66 46.59,-86.06 46.59,-86.06 0,0 4.17,11.06 10.76,25.11 6.58,14.05 13.12,27.5 13.12,27.5 0,0 27.2,-69.79 32.28,-95.64 5.12,-25.84 11.97,-86.06 11.97,-86.06 0,0 14.79,11.5 23.87,28.7 9.15,17.18 14.34,32.28 14.34,32.28 0,0 17.65,-331.38 -115.91,-430.29 -6.15,-4.55 -12.47,-8.83 -18.9,-12.9" />
        </g>
      </g>
      <g
         id="g728"
         transform="matrix(0.03527778,0,0,-0.03527778,34.121143,377.14785)">
        <g
           clip-path="url(#clipPath734)"
           id="g730">
          <path
             inkscape:connector-curvature="0"
             id="path752"
             style="fill:url(#linearGradient750);fill-opacity:1;fill-rule:nonzero;stroke:none"
             d="m 1437.44,7045.02 c 0,0 30.47,-10.47 43.03,-11.96 12.59,-1.49 32.28,-2.38 32.28,-2.38 0,0 -21.54,43.46 -32.28,75.3 -10.71,31.81 -26.27,102.79 -26.27,102.79 0,0 10.43,-8.53 28.69,-15.55 18.25,-7.01 26.25,-7.17 26.25,-7.17 0,0 -16.41,47.52 -23.89,76.49 -7.46,28.98 -17.92,77.69 -17.92,77.69 0,0 10.01,-10.59 27.47,-15.52 17.52,-4.94 27.53,0 27.53,0 0,0 -13.94,44.07 -15.57,72.9 -0.47,8.03 -0.64,16.67 -0.68,24.99 1.74,-10.31 7.71,-40.14 15.76,-62.68 8.87,-24.92 19.77,-42.19 19.77,-42.19 0,0 -12.55,-20.51 -45.05,-14.33 2.82,-12.38 5.9,-25.39 8.55,-35.75 7.15,-27.84 23.25,-74.43 23.44,-74.89 l 9.59,-27.76 -29.39,0.55 c -2.33,0.05 -10.22,0.65 -24.78,5.51 4.98,-20.6 11.05,-44.02 15.93,-58.52 10.16,-30.12 31.02,-72.36 31.23,-72.79 l 15.42,-31.13 -34.72,1.58 c -0.86,0.03 -20.62,0.95 -33.79,2.51 -3.34,0.39 -7.45,1.22 -11.83,2.29 4.47,-15.48 10,-32.1 15.65,-42.9 13.4,-25.35 41.4,-58.01 41.67,-58.34 l 6.37,-7.4 -1.74,-9.61 c -1.91,-10.42 -11.5,-23.15 -32.25,-25.98 4.91,-12.18 11.45,-26.14 19.36,-37.62 18.09,-26.2 50.46,-48.2 50.78,-48.43 l 14.17,-9.57 -6.83,-15.66 c -1.17,-2.59 -6.92,-14.46 -20.24,-21.56 11.71,-9.73 23.73,-19.1 32.45,-24.45 23.11,-14.13 51.96,-24.32 52.24,-24.42 l 19.49,-6.81 -6.96,-19.42 c -0.98,-2.82 -4.91,-11.43 -15.68,-19.92 14.1,-7.93 42.6,-20.74 63.86,-24.62 49.56,-9.08 88.26,4.34 88.26,4.34 0,0 -0.84,-41.79 -6.62,-49.93 19.46,0.56 56.35,-3.86 92.29,-2.52 35.93,1.34 48.57,5.34 101.52,13.09 -118.74,-38.7 -243.7,-30.69 -243.7,-30.69 0,0 15.52,8.06 29.88,27.49 14.35,19.42 10.73,20.32 10.73,20.32 0,0 -30.5,-7.77 -86.04,2.38 -55.55,10.16 -93.25,45.41 -93.25,45.41 0,0 13.44,0.33 25.11,7.19 11.68,6.87 14.35,14.33 14.35,14.33 0,0 -30.79,10.77 -56.18,26.31 -25.38,15.54 -70.51,57.37 -70.51,57.37 0,0 25.71,-2.4 35.85,1.19 10.17,3.59 14.37,13.14 14.37,13.14 0,0 -35.58,23.9 -56.23,53.79 -20.59,29.89 -32.26,72.91 -32.26,72.91 0,0 9.9,-4.93 25.09,-3.58 15.3,1.34 16.8,9.56 16.8,9.56 0,0 -29.61,34.36 -44.3,62.15 -14.57,27.79 -26.27,82.48 -26.27,82.48" />
        </g>
      </g>
    </g>
  </g>
</svg>
