<svg id="Layer_1" data-name="Layer 1" xmlns="http://www.w3.org/2000/svg" viewBox="0 0 62.91 58.93"><defs><style>.cls-1{fill:#00175c;}.cls-2{fill:#004cd0;}</style></defs><title>star</title><polygon class="cls-1" points="32.45 1 41.77 20.2 62.91 23.13 47.53 37.92 51.27 58.93 32.45 48.87 13.63 58.93 17.38 37.92 2 23.13 23.14 20.2 32.45 1"/><polygon class="cls-1" points="30.45 0 31.7 2.56 32.45 1 30.45 0"/><polygon class="cls-1" points="60.91 22.13 62.91 23.13 60.25 22.76 60.91 22.13"/><polygon class="cls-1" points="49.27 57.93 51.27 58.93 49.26 57.85 49.27 57.93"/><polygon class="cls-1" points="11.63 57.93 13.63 58.93 14.04 56.64 11.63 57.93"/><polygon class="cls-2" points="30.45 0 39.77 19.2 60.91 22.13 45.53 36.92 49.27 57.93 30.45 47.87 11.63 57.93 15.38 36.92 0 22.13 21.14 19.2 30.45 0"/></svg>